<svg xmlns="http://www.w3.org/2000/svg" viewBox="0 0 1024 1024">
    <path d="m513.58-.26 12.58.02a7784 7784 0 0 1 25.9.08h2.42c5.4.05 5.4.05 6.52 1.16q2.47.34 4.96.54C603.43 5.06 640.33 11.8 676 24l2.32.77C732.15 42.77 782.38 68.86 827 104l2.53 1.98c19.93 15.72 40.72 32.9 57.47 52.02v2l3 1c1.5 1.5 1.5 1.5 3.13 3.44q3.96 4.68 8.12 9.19c4.11 4.55 7.92 9.3 11.67 14.15q4.01 5.17 8.27 10.16c17.37 21.14 31.58 45.18 44.81 69.06l1.3 2.34c28.07 50.72 45.69 107.06 54.16 164.26q.44 2.88 1.02 5.73a102 102 0 0 1 1.84 20.32l.03 3.36.06 10.94.01 3.84q.05 9.04.06 18.1 0 9.25.08 18.5c.26 31.42-.26 61.76-6.56 92.61l-1.13 6.04q-1.29 6.7-2.8 13.34l-1.03 4.6a492 492 0 0 1-11.12 41.53C988.63 715.07 969.25 755.61 945 793l-2.04 3.15a481 481 0 0 1-50.45 64.23q-2.24 2.4-4.44 4.83-8.16 8.97-16.7 17.6l-1.83 1.87q-2.22 2.2-4.54 4.32h-2v2a92 92 0 0 1-4.75 3.94 185 185 0 0 0-11.94 10.37c-6.36 5.95-13.26 11.06-20.28 16.2a347 347 0 0 0-5.76 4.35c-71.04 54.63-155.77 85.02-300.32 98.8q-7.35-.05-14.7 0c-88.58.45-182.86-21.91-258.31-69.44q-3.22-2.02-6.45-3.99c-15.86-9.8-30.83-20.73-45.49-32.23l-2.5-1.94c-10.5-8.27-20.51-17.19-30.4-26.19a140 140 0 0 0-5.72-4.8L154 884v-2l-1.75-.73c-2.68-1.51-4.2-3.25-6.19-5.58a166 166 0 0 0-10.83-11.38c-4.7-4.58-8.85-9.42-12.96-14.54a159 159 0 0 0-6.58-7.46C97.15 821.91 82.16 797.53 68 774l-1.34-2.21a341 341 0 0 1-15.61-28.62q-1.67-3.45-3.38-6.9C28.29 696.74 15.07 655.18 6.75 612l-.67-3.44q-.9-4.97-1.68-9.97-.43-2.78-.9-5.55c-4.15-25.1-4.15-50.17-4.08-75.56q.03-7.16-.02-14.3C-.76 474.68.13 447.1 5 419l1.04-6.45C11.48 378.52 22.3 344.6 36 313l.98-2.3c22.95-53.4 54.7-103.15 94.32-145.75q3.03-3.3 5.94-6.7c4.2-4.82 8.68-9.31 13.2-13.81l2.44-2.46a245 245 0 0 1 13.34-12.45c2.42-2.08 4.75-4.24 7.1-6.4C188.81 109 188.81 109 192 109v-2c1.27-1.2 1.27-1.2 3.1-2.55l2.13-1.59 2.4-1.73 2.52-1.84C222 84.96 242.4 71.59 264 60l5.2-2.85C290.95 45.4 313.7 36.12 337 28l1.93-.67C371.68 15.9 405.13 7.48 439.6 3.3l5.07-.68c22.94-3.24 45.8-3.01 68.91-2.88M644 204a52 52 0 0 0-4.37 6.56l-2.63 4.4-1.44 2.43c-2.9 4.86-5.93 9.63-8.93 14.42l-3.9 6.24a2400 2400 0 0 1-8.34 13.23 1793 1793 0 0 0-19.59 31.75l-7.3 12.01a3209 3209 0 0 0-14.25 23.55q-4.15 6.92-8.37 13.79a3280 3280 0 0 0-36.45 61.03q-7.62 13-15.61 25.8a787 787 0 0 0-11.09 18.41c-4.66 8-9.44 15.92-14.2 23.84l-4.47 7.45a4102 4102 0 0 1-17.62 29.14 4552 4552 0 0 0-22.1 36.72A354 354 0 0 0 434 551c6.57.84 12.95 1.13 19.57 1.1h3.07l6.57-.02 10.4-.03 22.08-.05a18735 18735 0 0 1 42.13-.1l2.87-.01c4.56 0 8.83.17 13.31 1.11-.55 4.66-2.62 8.02-5.12 11.88l-1.33 2.07a1091 1091 0 0 1-6.27 9.69l-7.47 11.45a2198 2198 0 0 0-33.92 53.84q-3.37 5.48-6.77 10.94a2560 2560 0 0 0-33.22 54.88 1278 1278 0 0 1-15.26 25.07 732 732 0 0 0-10.99 18.36c-2.42 4.14-4.97 8.2-7.52 12.26a1177 1177 0 0 0-18.22 30.43l-1.04 1.8-3 5.14q-3.28 5.56-6.74 11A18 18 0 0 0 395 819l2 3c7.9-1.41 13.49-9.49 18.52-15.2q4.18-4.7 8.48-9.3l11.19-12.12 2.17-2.36c1.83-2.02 1.83-2.02 2.64-5.02h2c1.81-1.71 1.81-1.71 3.63-3.87l1.9-2.18c1.67-1.81 1.67-1.81 1.47-3.95l3-1a79 79 0 0 0 3.69-4.5c4.84-6.08 10.1-11.7 15.46-17.3 5.95-6.24 11.6-12.7 17.17-19.27a502 502 0 0 1 14.75-16.6c2.9-3.15 5.63-6.37 8.3-9.7 4.1-5.09 8.46-9.86 12.94-14.6a360 360 0 0 0 9.6-10.54c1.29-1.45 1.29-1.45 1.09-3.49h2a109 109 0 0 0 4.31-5.19 88 88 0 0 1 7.48-8.55c2.44-1.97 2.44-1.97 2.21-4.26h2a88 88 0 0 0 3.81-4.62 224 224 0 0 1 11.82-13.57c3.97-4.24 7.9-8.49 11.7-12.89q3.06-3.49 6.17-6.92a778 778 0 0 0 14.25-16.22 720 720 0 0 1 17-19.32q3.89-4.25 7.64-8.6a373 373 0 0 1 5.05-5.73l1.5-1.68c1.26-1.42 1.26-1.42 1.06-3.45l3-1c1.48-1.38 1.48-1.38 2.94-3.19l1.86-2.18L643 551l5.69-6.69 1.55-1.82a428 428 0 0 1 12.47-13.81c3.03-3.25 5.89-6.58 8.67-10.05 4.82-6.01 10.09-11.56 15.37-17.17 7.38-7.65 7.38-7.65 13.25-16.46-1-1.23-1-1.23-3.02-1.11l-2.7.02-3.02.01-3.3.03-6.92.03-3.57.01q-7.75 0-15.49-.08l-3-.03-15.92-.17-17.13-.17-17.6-.18L574 483c.6-3.9 1.09-6.69 3.35-9.95l1.55-2.27 1.73-2.47 5.97-8.75c4.8-7.09 9.46-14.27 14.15-21.43A4207 4207 0 0 1 622 406c2.28-2.82 2.28-2.82 2-6h2c1.34-1.59 1.34-1.59 2.67-3.7l1.62-2.47 1.76-2.72 1.84-2.8 5.86-9 9.52-14.56c6.5-9.96 13.11-19.86 19.73-29.75a5153 5153 0 0 0 35.06-53.24c11.13-17.09 11.13-17.09 16.8-25.55 5.47-8.16 10.82-16.4 16.19-24.6l3.52-5.4q2.83-4.36 5.83-8.6l2.25-3.2 2.03-2.8c1.59-3.14 1.15-4.3.32-7.61a614 614 0 0 0-38.84-1.13H680.9a6771 6771 0 0 0-24 0h-2.21c-3.67.01-7.16.04-10.68 1.13m-169.93 50.08C461.4 268.88 459.64 283.43 460 302l-1.66.55L451 305l-2.19.73c-25.05 8.43-47.49 21.33-66.39 39.88a223 223 0 0 1-4.02 3.8C366.15 361.04 357 375.24 349 390l-1.48 2.7c-12.45 25.01-14.34 52.94-14.9 80.32C329.94 595.3 329.94 595.3 288 638c-2.02 1.84-4.08 3.6-6.16 5.37-10.48 9.3-16.9 20.74-18 34.72-.4 10.42 3.32 19.1 9.91 27 7.72 8.33 17.99 12.86 29.25 13.91 3.97.14 7.93.13 11.9.11h13.24l10.12-.02 19.14-.02 21.79-.02L424 719l1.6-2.83 2.15-3.75 1.05-1.85c3.33-5.85 6.81-11.6 10.33-17.34a1915 1915 0 0 0 18.67-31.13q3.93-6.7 8.06-13.28 2.49-4.01 4.89-8.07a3750 3750 0 0 1 14.54-24.06l11.89-19.54 1.95-3.21 3.67-6 1.64-2.7 1.43-2.35c1.16-1.88 1.16-1.88 2.13-3.89l1-2-1.8-.01a27219 27219 0 0 1-64.49-.41 8208 8208 0 0 1-28.02-.18l-10.81-.08h-3.27l-2.97-.04-2.58-.02C393 576 393 576 391 574c4-7.54 8.28-14.87 12.75-22.14 7.28-11.85 14.37-23.8 21.36-35.83a876 876 0 0 1 12.05-20.05 931 931 0 0 0 7.28-12.04q6.9-11.54 13.9-23.01a2337 2337 0 0 0 17.85-29.78q8.89-15.05 17.92-30l9.2-15.34 10.95-18.24a7648 7648 0 0 0 34.49-57.9l3.5-5.92 1.6-2.69 2.86-4.87q1.24-2.1 2.51-4.19c3.21-5.33 3.73-8.93 2.78-15-2.2-8.35-5.14-15.6-11-22l-1.62-1.86c-8.04-8.69-20.53-14.63-32.38-15.14l-2.74-.16c-15.46-.48-29.57 4.78-40.19 16.24M675 371a2863 2863 0 0 0-33.56 51.2 911 911 0 0 1-9.12 13.78l-1.25 1.86a2726 2726 0 0 1-8.52 12.66l-2.07 3.06c-1.65 2.25-1.65 2.25-1.48 4.44h84c-.7-13.93-.7-13.93-3-27.37l-.54-2.44A93 93 0 0 0 697 419l-1.46-4.8c-6.86-23.46-6.86-23.46-20.54-43.2m29 149q-2.55 2.6-5 5.31l-1.51 1.66a213 213 0 0 0-8.74 10.28c-4.46 5.56-9.33 10.67-14.23 15.84-4.34 4.59-8.4 9.32-12.34 14.26-3.38 4.1-7 7.98-10.63 11.88a286 286 0 0 0-6.05 6.77c-2.94 3.4-5.96 6.7-9 10a595 595 0 0 0-15.2 17.18 660 660 0 0 1-17.84 20.15 398 398 0 0 0-7.72 8.68 594 594 0 0 1-6.24 6.99 683 683 0 0 0-8 9q-5.11 5.83-10.31 11.56a578 578 0 0 0-5.69 6.44q-5.11 5.83-10.31 11.56a578 578 0 0 0-5.69 6.44q-5.11 5.84-10.32 11.57a466 466 0 0 0-5.5 6.24c-3.66 4.22-7.47 8.3-11.27 12.4q-4.9 5.29-9.6 10.74c-3.22 3.65-6.55 7.18-9.87 10.73-2.15 2.07-2.15 2.07-1.94 4.32h-2a93 93 0 0 0-4 4.81 238 238 0 0 1-13.03 14.88c-2.15 2.23-2.15 2.23-2.97 5.31 12.85 8.82 26.37 12.11 41.75 12.25l2.44.03c5-.03 9.06-.75 13.81-2.28l3.13-.31c15.03-2.67 27.19-11.18 37.87-21.69l2.34-2.3c8.17-8.54 14.86-19.14 17.66-30.7q-.46-2-1-4l1-1q.55-3 1-6h2.06q24.87.1 49.73.16 12.03.01 24.05.07 10.5.05 20.98.05 5.55 0 11.1.04l12.42.02 3.66.03c14.74-.05 28.06-3.81 38.96-14.07 7.46-8.4 10.44-18.1 9.98-29.17-1.97-17.46-14.2-29.72-27-40.63-24.9-21.71-34.56-55.17-37.56-87l-.37-3.64A783 783 0 0 1 705 520z" fill="#f1b504"/>
    <path d="M437 355c4.82 2.46 7.28 4.84 9 10 0 4.1-.25 6.18-3.04 9.23q-1.47 1.4-2.96 2.77l-1.87 1.74-4.2 3.88c-19.75 18.27-34.8 40.96-36.08 68.63-.15 4.8-.28 9.62-.3 14.43-.11 7.9-.99 11.36-6.24 17.2-3.72 1.8-7.26 1.75-11.31 1.12-5.03-2.42-7.04-4.83-9-10-.44-3.9-.43-7.76-.37-11.69l.03-3.36c.52-28.4 9.34-53.84 27.34-75.95l2.4-3.09c8.08-10.13 22.24-26.32 36.6-24.91m88-84c5.34 4.38 7.88 8.84 8.87 15.66.16 2.91-.13 5.52-.87 8.34-4.84.97-9.54 1.13-14.46 1.1l-15.04-.05L491 296c-2.11-6.33-.62-13.35 1.81-19.44 2.28-4.16 4.5-5.58 8.94-7.19 8.02-2.07 15.9-2.8 23.25 1.63" fill="#FED40E"/>
</svg>

