<svg width="130" height="40" viewBox="0 0 130 40" fill="none" xmlns="http://www.w3.org/2000/svg">
<path d="M16.0461 11.52C17.6621 11.52 18.9021 11.928 19.7661 12.744C20.6461 13.56 21.0861 14.728 21.0861 16.248C21.0861 17.416 20.8301 18.44 20.3181 19.32C19.8061 20.184 19.0701 20.856 18.1101 21.336C17.1661 21.816 16.0541 22.056 14.7741 22.056H13.2381V22.104L13.3821 27H10.1181L10.2861 22.392L10.1181 11.544L16.0461 11.52ZM15.4941 19.68C16.9661 19.264 17.7021 18.216 17.7021 16.536C17.7021 15.672 17.4781 15.032 17.0301 14.616C16.5981 14.184 15.9261 13.952 15.0141 13.92L13.3821 14.016L13.2861 19.584L15.4941 19.68ZM26.8052 15.624C28.0372 15.624 28.9972 15.904 29.6852 16.464C30.3892 17.008 30.7412 17.776 30.7412 18.768C30.7412 19.056 30.6932 19.968 30.5972 21.504C30.5812 21.952 30.5572 22.416 30.5252 22.896C30.4932 23.36 30.4772 23.76 30.4772 24.096C30.4772 24.368 30.5172 24.56 30.5972 24.672C30.6772 24.768 30.8212 24.816 31.0292 24.816C31.1892 24.816 31.3972 24.784 31.6532 24.72L31.8932 24.912L31.6052 26.592C31.0932 26.928 30.5092 27.128 29.8532 27.192C29.3732 27.144 28.9732 26.976 28.6532 26.688C28.3332 26.384 28.1172 25.968 28.0052 25.44H27.8372C27.0372 26.288 26.2132 26.88 25.3652 27.216C24.2132 27.2 23.3092 26.896 22.6532 26.304C21.9972 25.712 21.6692 24.904 21.6692 23.88C21.6692 23.08 21.8692 22.456 22.2692 22.008C22.6852 21.544 23.3092 21.232 24.1412 21.072L27.8132 20.376V19.392C27.8132 18.352 27.3012 17.832 26.2772 17.832C25.7812 17.832 25.2532 17.944 24.6932 18.168C24.1492 18.392 23.5332 18.744 22.8452 19.224L22.6052 19.08L22.2452 16.968C22.9332 16.536 23.6692 16.208 24.4532 15.984C25.2372 15.744 26.0212 15.624 26.8052 15.624ZM25.2452 22.536C24.9892 22.6 24.7972 22.712 24.6692 22.872C24.5572 23.016 24.5012 23.24 24.5012 23.544C24.5012 23.96 24.6132 24.288 24.8372 24.528C25.0612 24.752 25.3732 24.864 25.7732 24.864C26.3972 24.864 27.0532 24.496 27.7412 23.76L27.7892 21.984L25.2452 22.536ZM40.6913 20.04C40.7073 19.48 40.5793 19.048 40.3073 18.744C40.0513 18.424 39.6753 18.264 39.1793 18.264C38.4593 18.264 37.6913 18.608 36.8753 19.296V22.08L37.0193 27H33.8273L33.9953 22.392L33.8753 16.056L36.8993 15.792V17.424H37.0673C37.9473 16.624 38.9073 16.048 39.9473 15.696C41.1633 15.696 42.0913 15.976 42.7313 16.536C43.3713 17.08 43.6753 17.872 43.6433 18.912L43.5713 22.104L43.7153 27H40.4993L40.6913 20.04ZM51.0424 24.648C51.5544 24.648 52.0904 24.512 52.6504 24.24L52.9144 24.48L52.6024 26.376C51.7864 26.792 50.9544 27.048 50.1064 27.144C47.9464 26.92 46.8664 25.864 46.8664 23.976L46.9864 21.984L46.9624 17.856H45.4744L45.3544 17.688L45.5224 15.936H46.9384V14.088L49.8424 13.152L50.0584 13.344L49.9864 15.936H52.8424L52.9384 16.104L52.7944 17.856H49.9384L49.7944 23.232C49.7944 23.744 49.8904 24.112 50.0824 24.336C50.2744 24.544 50.5944 24.648 51.0424 24.648ZM59.1077 15.624C60.7397 15.624 61.9877 16.104 62.8517 17.064C63.7157 18.024 64.1477 19.408 64.1477 21.216C64.1477 23.168 63.6837 24.664 62.7557 25.704C61.8277 26.728 60.4917 27.24 58.7477 27.24C57.1157 27.24 55.8677 26.76 55.0037 25.8C54.1397 24.84 53.7077 23.456 53.7077 21.648C53.7077 19.696 54.1717 18.208 55.0997 17.184C56.0277 16.144 57.3637 15.624 59.1077 15.624ZM58.8917 17.784C58.1237 17.784 57.5637 18.04 57.2117 18.552C56.8757 19.064 56.7077 19.888 56.7077 21.024C56.7077 22.496 56.8837 23.544 57.2357 24.168C57.5877 24.792 58.1637 25.104 58.9637 25.104C59.7317 25.104 60.2837 24.856 60.6197 24.36C60.9717 23.848 61.1477 23.016 61.1477 21.864C61.1477 20.408 60.9637 19.368 60.5957 18.744C60.2437 18.104 59.6757 17.784 58.8917 17.784ZM77.0631 17.352C76.6311 17.464 76.0151 17.584 75.2151 17.712L75.1671 17.808C75.4071 18.288 75.5271 18.824 75.5271 19.416C75.5271 20.616 75.0871 21.576 74.2071 22.296C73.3431 23 72.1671 23.352 70.6791 23.352C70.2311 23.352 69.7671 23.312 69.2871 23.232C69.1431 23.376 69.0471 23.488 68.9991 23.568C68.9511 23.648 68.9271 23.744 68.9271 23.856C68.9271 24.144 69.1191 24.344 69.5031 24.456C69.8871 24.568 70.4951 24.68 71.3271 24.792C72.2711 24.904 73.0551 25.04 73.6791 25.2C74.3191 25.36 74.8631 25.64 75.3111 26.04C75.7751 26.44 76.0071 27.008 76.0071 27.744C76.0071 28.496 75.7671 29.168 75.2871 29.76C74.8231 30.368 74.1751 30.84 73.3431 31.176C72.5111 31.512 71.5671 31.68 70.5111 31.68C69.0551 31.68 67.9351 31.384 67.1511 30.792C66.3671 30.2 65.9751 29.416 65.9751 28.44C66.4711 27.752 67.1351 27.152 67.9671 26.64V26.52C67.4231 26.328 66.9991 26.064 66.6951 25.728C66.3911 25.376 66.2391 24.912 66.2391 24.336C66.6711 23.808 67.2151 23.32 67.8711 22.872V22.752C67.2951 22.432 66.8551 22.016 66.5511 21.504C66.2631 20.976 66.1191 20.36 66.1191 19.656C66.1191 18.408 66.5511 17.432 67.4151 16.728C68.2791 16.024 69.4551 15.672 70.9431 15.672C71.8071 15.672 72.5911 15.816 73.2951 16.104C74.4471 15.896 75.6231 15.576 76.8231 15.144L77.0631 15.36V17.352ZM70.7751 21.432C71.4311 21.432 71.9271 21.264 72.2631 20.928C72.5991 20.592 72.7671 20.104 72.7671 19.464C72.7671 18.248 72.1431 17.64 70.8951 17.64C69.5511 17.64 68.8791 18.256 68.8791 19.488C68.8791 20.128 69.0391 20.616 69.3591 20.952C69.6791 21.272 70.1511 21.432 70.7751 21.432ZM73.3191 28.32C73.3191 27.888 73.0871 27.592 72.6231 27.432C72.1751 27.272 71.4791 27.136 70.5351 27.024L69.7191 26.904C69.3351 27.16 69.0471 27.408 68.8551 27.648C68.6631 27.888 68.5671 28.144 68.5671 28.416C68.5671 28.832 68.7591 29.168 69.1431 29.424C69.5271 29.68 70.0871 29.808 70.8231 29.808C71.5751 29.808 72.1751 29.672 72.6231 29.4C73.0871 29.144 73.3191 28.784 73.3191 28.32ZM84.5031 15.816C84.6471 15.816 84.8471 15.832 85.1031 15.864V18.816L84.7671 18.936C84.4951 18.824 84.1991 18.768 83.8791 18.768C82.9511 18.768 82.1111 19.368 81.3591 20.568V22.08L81.5271 27H78.3351L78.5271 22.392L78.3831 16.056L81.4071 15.792L81.3831 17.976H81.5751C82.3591 16.536 83.3351 15.816 84.5031 15.816ZM90.8365 15.624C92.0685 15.624 93.0285 15.904 93.7165 16.464C94.4205 17.008 94.7725 17.776 94.7725 18.768C94.7725 19.056 94.7245 19.968 94.6285 21.504C94.6125 21.952 94.5885 22.416 94.5565 22.896C94.5245 23.36 94.5085 23.76 94.5085 24.096C94.5085 24.368 94.5485 24.56 94.6285 24.672C94.7085 24.768 94.8525 24.816 95.0605 24.816C95.2205 24.816 95.4285 24.784 95.6845 24.72L95.9245 24.912L95.6365 26.592C95.1245 26.928 94.5405 27.128 93.8845 27.192C93.4045 27.144 93.0045 26.976 92.6845 26.688C92.3645 26.384 92.1485 25.968 92.0365 25.44H91.8685C91.0685 26.288 90.2445 26.88 89.3965 27.216C88.2445 27.2 87.3405 26.896 86.6845 26.304C86.0285 25.712 85.7005 24.904 85.7005 23.88C85.7005 23.08 85.9005 22.456 86.3005 22.008C86.7165 21.544 87.3405 21.232 88.1725 21.072L91.8445 20.376V19.392C91.8445 18.352 91.3325 17.832 90.3085 17.832C89.8125 17.832 89.2845 17.944 88.7245 18.168C88.1805 18.392 87.5645 18.744 86.8765 19.224L86.6365 19.08L86.2765 16.968C86.9645 16.536 87.7005 16.208 88.4845 15.984C89.2685 15.744 90.0525 15.624 90.8365 15.624ZM89.2765 22.536C89.0205 22.6 88.8285 22.712 88.7005 22.872C88.5885 23.016 88.5325 23.24 88.5325 23.544C88.5325 23.96 88.6445 24.288 88.8685 24.528C89.0925 24.752 89.4045 24.864 89.8045 24.864C90.4285 24.864 91.0845 24.496 91.7725 23.76L91.8205 21.984L89.2765 22.536ZM103.903 15.696C105.295 15.696 106.367 16.168 107.119 17.112C107.871 18.056 108.247 19.392 108.247 21.12C108.247 23.072 107.759 24.584 106.783 25.656C105.823 26.712 104.463 27.24 102.703 27.24C102.191 27.24 101.655 27.192 101.095 27.096L101.167 31.44H97.9992L98.1672 22.392L98.0232 16.056L101.071 15.792L101.047 17.424H101.215C101.663 16.992 102.095 16.648 102.511 16.392C102.927 16.12 103.391 15.888 103.903 15.696ZM102.727 25.152C103.559 25.152 104.191 24.856 104.623 24.264C105.055 23.672 105.271 22.8 105.271 21.648C105.271 20.528 105.087 19.688 104.719 19.128C104.367 18.552 103.839 18.264 103.135 18.264C102.447 18.264 101.751 18.608 101.047 19.296L101.023 22.08L101.071 24.792C101.647 25.032 102.199 25.152 102.727 25.152ZM117.381 20.04C117.397 19.464 117.277 19.024 117.021 18.72C116.765 18.416 116.389 18.264 115.893 18.264C115.173 18.264 114.405 18.608 113.589 19.296L113.541 22.08L113.709 27H110.517L110.685 22.368L110.541 10.392L113.733 10.152L113.613 17.424H113.757C114.637 16.624 115.605 16.048 116.661 15.696C117.877 15.696 118.797 15.976 119.421 16.536C120.061 17.08 120.373 17.872 120.357 18.912L120.285 22.104L120.405 27H117.213L117.381 20.04Z" fill="#F4F5F6"/>
</svg>
