<svg width="24" height="24" viewBox="0 0 24 24" fill="none" xmlns="http://www.w3.org/2000/svg">
<rect width="24" height="24" rx="6" fill="#4564E3"/>
<path d="M13.168 4C14.8493 4 16.1407 4.43333 17.042 5.3C17.9607 6.14933 18.42 7.38 18.42 8.992C18.42 10.864 17.8393 12.346 16.678 13.438C15.534 14.53 13.9567 15.076 11.946 15.076H10.1V15.466L10.23 20.718H7.5L7.682 15.7L7.5 4.026L13.168 4ZM12.726 12.996C13.6793 12.8053 14.3987 12.398 14.884 11.774C15.3867 11.1327 15.638 10.2833 15.638 9.226C15.638 8.186 15.3693 7.41467 14.832 6.912C14.312 6.40933 13.5147 6.14067 12.44 6.106L10.23 6.184L10.126 12.944L12.726 12.996Z" fill="white"/>
</svg>
